<svg xmlns="http://www.w3.org/2000/svg" width="26.205" height="14.151" viewBox="0 0 26.205 14.151">
  <path id="Caminho_4991" data-name="Caminho 4991" d="M1590.979-622.389c-1-.406-.921-1.33-.274-1.966,3.671-3.614,7.308-7.262,10.958-10.9.072-.072.153-.135.32-.281a1.574,1.574,0,0,1-.3-.178q-5.531-5.506-11.056-11.017a1.062,1.062,0,0,1-.337-1.263,1.262,1.262,0,0,1,.69-.6h.461a6.476,6.476,0,0,1,.744.558q5.853,5.817,11.692,11.648a3.133,3.133,0,0,1,.245.261,1,1,0,0,1,0,1.273,3.208,3.208,0,0,1-.245.261q-5.844,5.826-11.692,11.648a6.471,6.471,0,0,1-.744.557Z" transform="translate(-622.389 -1590.198) rotate(90)" fill="#37613c"/>
</svg>
