<svg xmlns="http://www.w3.org/2000/svg" width="243.93" height="282" viewBox="0 0 243.93 282">
  <g id="Grupo_292" data-name="Grupo 292" transform="translate(-1398.07 -225)">
    <rect id="Retângulo_952" data-name="Retângulo 952" width="223" height="156" transform="translate(1409.874 311)" fill="#f4f6f6"/>
    <g id="Grupo_281" data-name="Grupo 281" transform="translate(1129.791 -502.768)">
      <path id="Caminho_4904" data-name="Caminho 4904" d="M433.025,730.79a6.787,6.787,0,0,0-.827-1.007,6.883,6.883,0,0,0-10.769,8.409l-51.543,48.767a27.269,27.269,0,0,0-29.8,0l-51.543-48.767a6.88,6.88,0,0,0-9.762-9.237,6.992,6.992,0,0,0-1.007.827,6.781,6.781,0,0,0-.827,1.007,6.88,6.88,0,0,0,9.237,9.762l48.4,51.162a27.4,27.4,0,0,0-4.333,6.579h49.466a27.277,27.277,0,0,0-4.333-6.579l48.4-51.162a6.88,6.88,0,0,0,9.237-9.762Z" transform="translate(35.258)" fill="#37613c"/>
      <g id="Grupo_280" data-name="Grupo 280" transform="translate(268.279 799.884)">
        <path id="Caminho_4906" data-name="Caminho 4906" d="M362.671,888.557,384,912.81h10.035L386.5,888.557Z" transform="translate(-180.612 -702.927)" fill="#37613c"/>
        <path id="Caminho_4907" data-name="Caminho 4907" d="M488.822,783.947l-.071-.646a12.32,12.32,0,0,0-12.3-10.545H265.68a12.317,12.317,0,0,0-12.3,10.545c-.024.215-.047.43-.071.646a780.234,780.234,0,0,0,0,161.816c.024.215.046.428.069.643a12.32,12.32,0,0,0,12.306,10.546H476.447a12.322,12.322,0,0,0,12.306-10.546c.021-.215.045-.428.069-.643a762.436,762.436,0,0,0,4.206-80.909A762.431,762.431,0,0,0,488.822,783.947ZM472.968,924.675a11.5,11.5,0,0,1-11.5,11.5h-180.8a11.5,11.5,0,0,1-11.5-11.5V805.034a11.5,11.5,0,0,1,11.5-11.5h180.8a11.5,11.5,0,0,1,11.5,11.5Z" transform="translate(-249.098 -772.756)" fill="#37613c"/>
        <path id="Caminho_4908" data-name="Caminho 4908" d="M268.131,912.81h10.035l21.326-24.253H275.658Z" transform="translate(-237.621 -702.927)" fill="#37613c"/>
      </g>
    </g>
    <g id="Grupo_324" data-name="Grupo 324">
      <text id="TV_ÁPICE_SAÚDE" data-name="TV 
ÁPICE
SAÚDE" transform="translate(1521.875 368)" fill="#37613c" font-size="30" font-family="SegoeUIBlack, Segoe UI"><tspan x="-24.243" y="0">TV </tspan><tspan x="-44.041" y="41">ÁPICE</tspan><tspan x="-50.588" y="82">SAÚDE</tspan></text>
    </g>
  </g>
</svg>
