<svg xmlns="http://www.w3.org/2000/svg" width="35.287" height="35.22" viewBox="0 0 35.287 35.22">
  <g id="Grupo_306" data-name="Grupo 306" transform="translate(-2898.926 -3010.864)">
    <path id="Caminho_4912" data-name="Caminho 4912" d="M2902.577,3182.364h27.983v-.44q0-6.716,0-13.433a1.823,1.823,0,1,1,3.645-.092c.014,1.366,0,2.732,0,4.1q0,5.123,0,10.245a3.052,3.052,0,0,1-3.272,3.272H2902.2a3.051,3.051,0,0,1-3.273-3.271q0-7.133,0-14.267a1.825,1.825,0,1,1,3.647.015q0,4.041,0,8.083v5.791Z" transform="translate(0 -139.931)" fill="#37613c"/>
    <path id="Caminho_4913" data-name="Caminho 4913" d="M2997.607,3032.555c.147-.136.239-.216.325-.3,1.148-1.144,2.288-2.3,3.444-3.431a1.815,1.815,0,0,1,2.978,1.944,2.355,2.355,0,0,1-.49.71q-3.349,3.365-6.718,6.712a1.81,1.81,0,0,1-2.729,0q-3.381-3.361-6.747-6.736a1.822,1.822,0,1,1,2.575-2.574c1.135,1.121,2.26,2.252,3.39,3.378.086.086.178.166.322.3v-.473q0-9.639,0-19.279a1.826,1.826,0,0,1,3.645-.222c.009.151,0,.3,0,.455v19.522Z" transform="translate(-79.214 0)" fill="#37613c"/>
  </g>
</svg>
